<svg preserveAspectRatio="none" overflow="visible" style="display: block;" width="24" height="24" viewBox="0 0 24 24" fill="none" xmlns="http://www.w3.org/2000/svg">
<g id="Frame 1707479644">
<g id="Vector">
<path d="M5.39999 19.1056C6.62708 20.4368 8.2275 21.3664 9.99173 21.7729C11.756 22.1793 13.6018 22.0436 15.2877 21.3836C16.9735 20.7235 18.4208 19.5698 19.44 18.0735C20.4592 16.5772 21.003 14.8081 21 12.9976V6.99763C21 6.99763 7.88499 7.81863 5.39999 19.1056Z" fill="white"/>
<path d="M16.6 5.80663C15.511 4.07989 13.8995 2.74555 12 1.99763C10.1005 2.74555 8.48902 4.07989 7.39999 5.80663C8.99486 6.25196 10.5371 6.86785 12 7.64363C13.4629 6.86785 15.0051 6.25196 16.6 5.80663Z" fill="white"/>
<path d="M10.019 8.89763C7.80008 7.88164 5.42841 7.23965 2.99999 6.99763V12.9976C3.00016 14.37 3.31922 15.7236 3.93199 16.9516C5.04167 13.682 7.17635 10.8575 10.019 8.89763Z" fill="white"/>
</g>
</g>
</svg>
